<svg xmlns="http://www.w3.org/2000/svg" version="1.1" xmlns:xlink="http://www.w3.org/1999/xlink" xmlns:svgjs="http://svgjs.dev/svgjs" width="1000" height="623" viewBox="0 0 1000 623"><g transform="matrix(1,0,0,1,-0.6060606060605664,0.2522267206477409)"><svg viewBox="0 0 396 247" data-background-color="#000000" preserveAspectRatio="xMidYMid meet" height="623" width="1000" xmlns="http://www.w3.org/2000/svg" xmlns:xlink="http://www.w3.org/1999/xlink"><g id="tight-bounds" transform="matrix(1,0,0,1,0.2400000000000091,-0.09999999999999432)"><svg viewBox="0 0 395.52 247.2" height="247.2" width="395.52"><g><svg></svg></g><g><svg viewBox="0 0 395.52 247.2" height="247.2" width="395.52"><g transform="matrix(1,0,0,1,75.54432,58.5098513258427)"><svg viewBox="0 0 244.43135999999998 130.18029734831458" height="130.18029734831458" width="244.43135999999998"><g><svg viewBox="0 0 244.43135999999998 130.18029734831458" height="130.18029734831458" width="244.43135999999998"><g><svg viewBox="0 0 244.43135999999998 130.18029734831458" height="130.18029734831458" width="244.43135999999998"><g id="textblocktransform"><svg viewBox="0 0 244.43135999999998 130.18029734831458" height="130.18029734831458" width="244.43135999999998" id="textblock"><g><svg viewBox="0 0 244.43135999999998 130.18029734831458" height="130.18029734831458" width="244.43135999999998"><g transform="matrix(1,0,0,1,0,0)"><svg width="244.43135999999998" viewBox="-3.2 -40.7 126.45 59.25" height="130.18029734831458" data-palette-color="#89939e"><g class="wordmark-text-0" data-fill-palette-color="primary" id="text-0"><path d="M59.45-35.3L59.45-35.3 57.3-34.9Q53.45-28.25 49.9-17L49.9-17Q48.55-12.75 46.1-7.23 43.65-1.7 40.65 3L40.65 3Q36.6 9.3 29.88 13.38 23.15 17.45 17.6 18.2L17.6 18.2Q15.05 18.55 11.8 18.55 8.55 18.55 5.1 17.4L5.1 17.4Q-0.3 15.6-2.3 11.5L-2.3 11.5Q-3.2 9.6-3.2 7.05-3.2 4.5-1.85 1.05L-1.85 1.05Q-0.9-1.25 1.5-3.25 3.9-5.25 5.25-5.3L5.25-5.3Q5.85-5.35 5.85-5.1L5.85-5.1Q5.8-4.9 5.2-4.6L5.2-4.6Q3.6-3.95 1.65-1.75-0.3 0.45-0.93 2.68-1.55 4.9-1.55 6.1L-1.55 6.1Q-1.55 9.75 0.4 12L0.4 12Q1.75 13.5 3.75 14.7 5.75 15.9 8.05 16.35L8.05 16.35Q11.45 17 13.45 17 15.45 17 17 16.6L17 16.6Q20.4 15.85 23.58 14.1 26.75 12.35 29.2 10.28 31.65 8.2 34.08 5.15 36.5 2.1 38.15-0.4 39.8-2.9 41.65-6.4L41.65-6.4Q44.65-12.1 47.8-19.5L47.8-19.5Q51.75-28.3 55.8-34.7L55.8-34.7Q48.85-33.55 41.65-29.7L41.65-29.7Q38-27.75 35.4-24.75L35.4-24.75Q32.05-20.95 32.05-16.6L32.05-16.6Q32.05-14.25 33.18-12.95 34.3-11.65 35.55-11.65 36.8-11.65 38.3-12.2 39.8-12.75 41-14.1L41-14.1Q42.9-16.3 42.9-19.15L42.9-19.15Q42.9-20.35 42.55-20.75L42.55-20.75Q41.95-21.15 42.45-21.5L42.45-21.5Q43-21.8 43.6-21.15L43.6-21.15Q44.1-20.05 44.1-18.57 44.1-17.1 43-15.2L43-15.2Q41.15-12.05 37.9-10.9L37.9-10.9Q36.4-10.4 35.05-10.4L35.05-10.4Q32.8-10.4 31-11.85L31-11.85Q28.7-13.75 28.7-16.95L28.7-16.95Q28.7-21 31.6-24.7L31.6-24.7Q33.8-27.55 36.77-29.4 39.75-31.25 43.5-32.7L43.5-32.7Q49.55-35.05 56.65-36L56.65-36Q57.25-37 58.45-38.35 59.65-39.7 60.45-39.95 61.25-40.2 61.75-40.2L61.75-40.2Q63.5-40.2 63.5-38.7L63.5-38.7Q63.45-37.35 62.4-36.63 61.35-35.9 59.45-35.3ZM61-38.6L61-38.6Q60.9-38.6 60.78-38.55 60.65-38.5 60.43-38.33 60.2-38.15 60-38 59.8-37.85 59.53-37.55 59.25-37.25 59.08-37.08 58.9-36.9 58.6-36.58 58.3-36.25 58.2-36.15L58.2-36.15Q61.65-36.75 61.6-38L61.6-38Q61.5-38.6 61-38.6Z" fill="#89939e" data-fill-palette-color="primary"></path><path d="M121.45-33.95L121.45-33.95Q121.45-35.7 119.85-37.25L119.85-37.25Q117.55-39.45 113.5-39.45L113.5-39.45Q109.95-39.45 105.65-37.9L105.65-37.9Q103.4-37.1 101.75-35.7L101.75-35.7Q99.2-33.5 99.2-31.3L99.2-31.3Q99.2-28.35 102.95-26L102.95-26Q104.35-25.15 108.57-23.23 112.8-21.3 114.75-20.1L114.75-20.1Q117.7-18.3 118.82-16.25 119.95-14.2 119.95-12.45L119.95-12.45Q119.95-9.95 118.3-7.35L118.3-7.35Q115.4-2.7 109.8 0.65L109.8 0.65Q103.35 4.55 94.25 4.55L94.25 4.55Q85.5 4.55 80.35 0.1L80.35 0.1Q76.35-3.3 76.35-8.65L76.35-8.65Q76.35-12.05 78.82-16.15 81.3-20.25 84.9-21.95L84.9-21.95Q85.65-22.25 86.02-22.15 86.4-22.05 85.4-21.2L85.4-21.2Q83.25-19.5 81.95-17.45L81.95-17.45Q79.15-13.05 79.15-7.9L79.15-7.9Q79.15-4.5 81.05-1.95L81.05-1.95Q84.45 2.6 92.85 3.2L92.85 3.2Q93.8 3.3 95.67 3.3 97.55 3.3 100.77 2.63 104 1.95 107 0.4L107 0.4Q113.45-3 115.35-8.4L115.35-8.4Q115.95-10 115.95-11.5L115.95-11.5Q115.95-14.9 112.9-17.5L112.9-17.5Q111.25-18.8 106.17-20.98 101.1-23.15 99.35-24.3L99.35-24.3Q95.5-26.9 95.5-30.45L95.5-30.45Q95.5-33.55 98.95-36.5L98.95-36.5Q103.9-40.7 112.95-40.7L112.95-40.7Q117.2-40.7 119.87-39.43 122.55-38.15 123.15-35.6L123.15-35.6Q123.25-35.1 123.25-34.6L123.25-34.6Q123.25-32.65 121.45-31.1L121.45-31.1Q120.2-30.1 118.1-29.5L118.1-29.5Q117.2-29.25 117.1-29.7L117.1-29.7Q117-30.35 118.35-30.5L118.35-30.5Q120.75-30.8 121.3-32.9L121.3-32.9Q121.45-33.45 121.45-33.95Z" fill="#dedede" data-fill-palette-color="secondary"></path></g></svg></g></svg></g></svg></g></svg></g></svg></g></svg></g><g><path d="M0 123.6c0-68.262 55.338-123.6 123.6-123.6 37.535 0 71.163 16.732 93.831 43.144l-7.882 0c-21.482-22.939-52.042-37.274-85.949-37.274-65.021 0-117.73 52.71-117.73 117.73 0 65.021 52.71 117.73 117.73 117.73 33.907 0 64.467-14.334 85.949-37.274h7.882c-22.668 26.412-56.296 43.144-93.831 43.144-68.262 0-123.6-55.338-123.6-123.6z" fill="#89939e" stroke="transparent" data-fill-palette-color="tertiary"></path></g></svg></g><defs></defs></svg><rect width="395.52" height="247.2" fill="none" stroke="none" visibility="hidden"></rect></g></svg></g></svg>